<svg fill="none" height="100" viewBox="0 0 100 100" width="100" xmlns="http://www.w3.org/2000/svg" xmlns:xlink="http://www.w3.org/1999/xlink"><clipPath id="a"><path d="m0 0h100v100h-100z"/></clipPath><g clip-path="url(#a)"><path d="m0 0h100v100h-100z" fill="#fff"/><g fill="#e8368f"><path d="m61.9346 20.9636c.5462-3.4626 2.8534-6.3175 6.0809-7.5244l1.5365-.5746c8.0268-3.00157 16.0812 5.2498 13.0258 13.3444l-22.4339 59.4338c-1.3177 3.491-6.2114 3.4513-7.7215-.0627-.3248-.7559-.4306-1.5831-.3046-2.3821z"/><path d="m28.2173 46.0914c-.6025-2.4543-.1922-5.0478 1.1385-7.1963 4.933-7.9651 17.2068-4.6115 17.4043 4.7553l.8508 40.3586c.0729 3.4562-3.8378 5.5063-6.639 3.4803-.7478-.5409-1.296-1.3138-1.5591-2.1985l-9.0016-30.2616z"/><path d="m27.8828 62.0757c-2.1061 2.3826-5.0638 3.6201-8.0069 3.3499l-.3536-.0325c-9.064-.8322-11.44548-13.7507-3.5261-19.1275l15.6696-10.6388c3.6105-2.4514 8.1542-2.1542 11.2348.7347l.0539.0505c1.2057 1.3478 1.2934 3.4947.2072 5.0725l-10.2894 14.9463z"/></g></g></svg>