<svg width="257" height="100" viewBox="0 0 257 100" fill="none" xmlns="http://www.w3.org/2000/svg">
<rect width="257" height="100" fill="white"/>
<path d="M111.264 50.0142C111.264 53.5337 110.694 56.596 109.556 59.2012C108.417 61.7891 106.838 63.868 104.82 65.438L111.083 70.355L106.14 74.7285L98.1172 68.2847C97.2028 68.4399 96.2539 68.5176 95.2705 68.5176C92.1478 68.5176 89.3615 67.7671 86.9116 66.2661C84.4618 64.7651 82.564 62.6258 81.2183 59.8481C79.8726 57.0532 79.1911 53.8442 79.1738 50.2212V48.3579C79.1738 44.6486 79.8381 41.3879 81.1665 38.5757C82.5122 35.7463 84.4014 33.5811 86.834 32.0801C89.2839 30.5618 92.0788 29.8027 95.2188 29.8027C98.3587 29.8027 101.145 30.5618 103.578 32.0801C106.028 33.5811 107.917 35.7463 109.245 38.5757C110.591 41.3879 111.264 44.64 111.264 48.332V50.0142ZM103.396 48.3062C103.396 44.3553 102.689 41.3534 101.274 39.3003C99.8597 37.2472 97.8411 36.2207 95.2188 36.2207C92.6136 36.2207 90.6037 37.2386 89.189 39.2744C87.7743 41.293 87.0583 44.2604 87.041 48.1768V50.0142C87.041 53.8615 87.7484 56.8462 89.1631 58.9683C90.5778 61.0903 92.6136 62.1514 95.2705 62.1514C97.8757 62.1514 99.877 61.1335 101.274 59.0977C102.672 57.0446 103.379 54.0599 103.396 50.1436V48.3062ZM125.419 33.1152V39.999H130.207V45.4854H125.419V59.46C125.419 60.4951 125.618 61.237 126.015 61.6855C126.411 62.1341 127.171 62.3584 128.292 62.3584C129.12 62.3584 129.853 62.298 130.492 62.1772V67.8447C129.025 68.2933 127.516 68.5176 125.963 68.5176C120.718 68.5176 118.044 65.8693 117.94 60.5728V45.4854H113.852V39.999H117.94V33.1152H125.419ZM132.433 53.7407C132.433 50.9631 132.967 48.4873 134.037 46.3135C135.107 44.1396 136.642 42.4575 138.644 41.2671C140.662 40.0767 143 39.4814 145.657 39.4814C149.435 39.4814 152.515 40.6374 154.896 42.9492C157.294 45.2611 158.631 48.401 158.907 52.3691L158.958 54.2842C158.958 58.5801 157.759 62.0306 155.361 64.6357C152.963 67.2236 149.746 68.5176 145.708 68.5176C141.671 68.5176 138.445 67.2236 136.03 64.6357C133.632 62.0479 132.433 58.5283 132.433 54.0771V53.7407ZM139.912 54.2842C139.912 56.9411 140.412 58.9769 141.413 60.3916C142.413 61.7891 143.845 62.4878 145.708 62.4878C147.52 62.4878 148.935 61.7977 149.953 60.4175C150.971 59.02 151.479 56.7944 151.479 53.7407C151.479 51.1356 150.971 49.117 149.953 47.6851C148.935 46.2531 147.503 45.5371 145.657 45.5371C143.828 45.5371 142.413 46.2531 141.413 47.6851C140.412 49.0998 139.912 51.2995 139.912 54.2842ZM179.299 47.0122C178.281 46.8742 177.384 46.8052 176.608 46.8052C173.778 46.8052 171.924 47.7627 171.044 49.6777V68H163.565V39.999H170.63L170.837 43.3374C172.338 40.7668 174.417 39.4814 177.074 39.4814C177.902 39.4814 178.678 39.5936 179.403 39.8179L179.299 47.0122ZM190.815 68H183.311V39.999H190.815V68ZM182.871 32.7529C182.871 31.6315 183.242 30.7085 183.983 29.9839C184.743 29.2593 185.769 28.897 187.063 28.897C188.34 28.897 189.358 29.2593 190.117 29.9839C190.876 30.7085 191.255 31.6315 191.255 32.7529C191.255 33.8916 190.867 34.8232 190.091 35.5479C189.332 36.2725 188.322 36.6348 187.063 36.6348C185.804 36.6348 184.786 36.2725 184.009 35.5479C183.25 34.8232 182.871 33.8916 182.871 32.7529ZM213.227 68C212.882 67.3271 212.631 66.4904 212.476 65.4897C210.665 67.5083 208.31 68.5176 205.411 68.5176C202.668 68.5176 200.391 67.724 198.579 66.1367C196.785 64.5495 195.888 62.5482 195.888 60.1328C195.888 57.1654 196.983 54.888 199.174 53.3008C201.383 51.7135 204.566 50.9113 208.724 50.894H212.166V49.2896C212.166 47.9956 211.829 46.9604 211.156 46.1841C210.501 45.4077 209.457 45.0195 208.025 45.0195C206.765 45.0195 205.773 45.3215 205.049 45.9253C204.341 46.5291 203.988 47.3573 203.988 48.4097H196.509C196.509 46.7879 197.009 45.2869 198.01 43.9067C199.01 42.5265 200.425 41.4482 202.254 40.6719C204.083 39.8783 206.136 39.4814 208.413 39.4814C211.864 39.4814 214.598 40.3527 216.617 42.0952C218.653 43.8205 219.67 46.2531 219.67 49.3931V61.5303C219.688 64.1872 220.059 66.1971 220.783 67.5601V68H213.227ZM207.042 62.7983C208.146 62.7983 209.164 62.5568 210.095 62.0737C211.027 61.5734 211.717 60.9092 212.166 60.0811V55.2676H209.371C205.627 55.2676 203.634 56.5615 203.393 59.1494L203.367 59.5894C203.367 60.521 203.694 61.2887 204.35 61.8926C205.006 62.4964 205.903 62.7983 207.042 62.7983ZM233.309 68H225.804V28.25H233.309V68Z" fill="black"/>
<path d="M56.8257 26.9622C57.2322 24.3857 58.9489 22.2614 61.3505 21.3633C67.3232 19.1299 73.3166 25.2697 71.0431 31.2929L55.6032 72.1974C54.6769 74.6513 51.2371 74.6234 50.1756 72.1533C49.9472 71.6219 49.8729 71.0405 49.9615 70.4789L56.8257 26.9622Z" fill="#E8368F"/>
<path d="M33.1611 44.3956C32.7376 42.6704 33.026 40.8474 33.9614 39.3371C37.4289 33.7382 46.0566 36.0955 46.1954 42.6797L46.7934 71.0489C46.8446 73.4784 44.0957 74.9195 42.1267 73.4953C41.601 73.1151 41.2157 72.5718 41.0307 71.9499L34.7033 50.6782L33.1611 44.3956Z" fill="#E8368F"/>
<path d="M32.9514 55.6026C31.455 57.2956 29.3534 58.1748 27.2621 57.9828C20.8217 57.3915 19.1295 48.2122 24.7566 44.3917L35.5408 37.0698C38.1051 35.3287 41.3323 35.5398 43.5203 37.5916C44.3678 38.5391 44.4295 40.0482 43.666 41.1573L36.4333 51.6634L32.9514 55.6026Z" fill="#E8368F"/>
</svg>
